<svg width="24" height="24" viewBox="0 0 24 24" fill="none" xmlns="http://www.w3.org/2000/svg">
<path d="M9.33017 6.5H14.6702C16.2231 6.5 17.1848 7.04555 17.6109 7.78373C18.0372 8.52222 18.0285 9.62818 17.2569 10.9705C17.2568 10.9706 17.2568 10.9707 17.2567 10.9708L16.5178 12.2489C16.5177 12.249 16.5177 12.2491 16.5176 12.2492C16.4273 12.4046 16.2623 12.5 16.0802 12.5H7.92017C7.73811 12.5 7.57316 12.4046 7.48279 12.2493C7.48272 12.2492 7.48264 12.2491 7.48256 12.2489L6.74364 10.9708C6.74352 10.9706 6.74341 10.9704 6.74329 10.9702C5.97185 9.62802 5.96316 8.52217 6.38945 7.78373C6.81558 7.04555 7.7772 6.5 9.33017 6.5Z" fill="#4C5361" stroke="#4C5361"/>
<g opacity="0.4">
<mask id="path-2-inside-1_510_1923" fill="white">
<path d="M8.78957 14H15.2196C15.6096 14 15.8496 14.42 15.6496 14.75L15.0096 15.85C13.3596 18.72 10.6396 18.72 8.98957 15.85L8.34957 14.75C8.15957 14.42 8.39957 14 8.78957 14Z"/>
</mask>
<path d="M8.78957 14H15.2196C15.6096 14 15.8496 14.42 15.6496 14.75L15.0096 15.85C13.3596 18.72 10.6396 18.72 8.98957 15.85L8.34957 14.75C8.15957 14.42 8.39957 14 8.78957 14Z" fill="#4C5361"/>
<path d="M15.6496 14.75L14.7944 14.2317L14.7897 14.2394L14.7852 14.2471L15.6496 14.75ZM15.0096 15.85L14.1452 15.3471L14.1426 15.3516L15.0096 15.85ZM8.98957 15.85L9.85652 15.3516L9.85392 15.3471L8.98957 15.85ZM8.34957 14.75L7.48294 15.249L7.48522 15.2529L8.34957 14.75ZM8.78957 15H15.2196V13H8.78957V15ZM15.2196 15C14.8496 15 14.5805 14.5846 14.7944 14.2317L16.5048 15.2683C17.1186 14.2554 16.3695 13 15.2196 13V15ZM14.7852 14.2471L14.1452 15.3471L15.8739 16.3529L16.5139 15.2529L14.7852 14.2471ZM14.1426 15.3516C13.4252 16.5994 12.6118 17.0025 11.9996 17.0025C11.3874 17.0025 10.5739 16.5994 9.85651 15.3516L8.12263 16.3484C9.05524 17.9706 10.4268 19.0025 11.9996 19.0025C13.5724 19.0025 14.9439 17.9706 15.8765 16.3484L14.1426 15.3516ZM9.85392 15.3471L9.21392 14.2471L7.48522 15.2529L8.12522 16.3529L9.85392 15.3471ZM9.21619 14.251C9.41306 14.593 9.16276 15 8.78957 15V13C7.63638 13 6.90608 14.247 7.48295 15.249L9.21619 14.251Z" fill="#4C5361" mask="url(#path-2-inside-1_510_1923)"/>
</g>
</svg>
