<svg width="18" height="18" viewBox="0 0 18 18" fill="none" xmlns="http://www.w3.org/2000/svg">
<path opacity="0.4" d="M15.9925 5.85613V5.8575V12.1425C15.9925 13.4081 15.6172 14.3582 14.9839 14.9914C14.3507 15.6247 13.4006 16 12.135 16H5.8575C4.59195 16 3.64196 15.6247 3.00877 14.9907C2.37552 14.3567 2 13.4047 2 12.135V5.8575C2 4.59194 2.3753 3.6418 3.00855 3.00855C3.6418 2.3753 4.59194 2 5.8575 2H12.1425C13.4082 2 14.3581 2.37535 14.9903 3.00833C15.6224 3.64121 15.996 4.59088 15.9925 5.85613Z" fill="#155615" stroke="#155615"/>
<path d="M7.73938 8.64656L7.38582 9.00012L7.73938 9.35367L9.98938 11.6037C9.99882 11.6131 10.0061 11.6278 10.0061 11.6476C10.0061 11.6674 9.99882 11.6821 9.98938 11.6916L9.98328 11.6977L9.9774 11.704L9.97649 11.7049L9.97624 11.705C9.97624 11.7051 9.97571 11.7054 9.97425 11.706C9.97133 11.7072 9.96228 11.7101 9.94543 11.7101C9.93566 11.7101 9.92806 11.7084 9.92224 11.706C9.91688 11.7039 9.90991 11.7 9.90148 11.6916L7.25398 9.04406C7.24454 9.03462 7.2373 9.01993 7.2373 9.00012C7.2373 8.98031 7.24454 8.96561 7.25398 8.95617L9.90148 6.30867C9.91093 6.29923 9.92562 6.29199 9.94543 6.29199C9.96524 6.29199 9.97993 6.29923 9.98938 6.30867C9.99882 6.31811 10.0061 6.33281 10.0061 6.35262C10.0061 6.37243 9.99882 6.38712 9.98938 6.39656L7.73938 8.64656Z" fill="#155615" stroke="#155615"/>
</svg>
