<svg width="462" height="327" viewBox="0 0 462 327" fill="none" xmlns="http://www.w3.org/2000/svg">
<path d="M410.25 145L389.25 148L390.75 159L387.25 168L399.25 176H405.25L437.75 187.5C440.917 183.833 447.45 176.4 448.25 176C449.05 175.6 448.583 171.167 448.25 169L452.75 165L451.75 159L455.25 156.5L443.25 151L422.25 149.5L410.25 145Z" fill="#27AE60" stroke="black" stroke-opacity="0.24"/>
<path d="M407.75 219.5L396.25 234.5L380.75 228.5L365.25 205L373.25 201.5L373.75 196.5L391.25 189V183L397.25 180L398.25 176H404.25L436.75 189L430.75 196.5L429.75 201L421.25 207.5V212L412.75 218.5L407.75 219.5Z" fill="#27AE60" stroke="black" stroke-opacity="0.24"/>
<path d="M228.25 129.5L233.75 127.5L234.75 117.5L224.75 108V101L230.75 94.5L247.25 92.5L249.75 95L254.25 96L252.75 91L243.75 83.5L230.75 87.5L214.75 87L205.75 83.5L201.75 77L188.25 78.5L183.75 86L193.25 94.5L201.75 116C202.417 120 203.75 128.3 203.75 129.5C203.75 130.7 220.083 130 228.25 129.5Z" fill="#27AE60" stroke="black" stroke-opacity="0.24"/>
<path d="M268.25 43.5L246.75 48.5L265.25 58L273.75 73.5H286.75L304.75 79L314.25 81.5L320.25 68.5L308.75 47.5C303.917 43.6667 294.05 36 293.25 36H282.25L268.25 43.5Z" fill="#E22034" stroke="black" stroke-opacity="0.24"/>
<path d="M259.75 74.5L243.25 83.5L252.75 91C253.25 92.8333 254.25 96.7 254.25 97.5C254.25 98.3 257.583 97.8333 259.25 97.5L271.25 91H283.25C284.45 91 290.75 85.3333 293.75 82.5H300.75C302.35 82.5 304.417 80.8333 305.25 80C299.083 77.8333 286.65 73.5 286.25 73.5C285.85 73.5 268.417 74.1667 259.75 74.5Z" fill="#E22034" stroke="black" stroke-opacity="0.24"/>
<path d="M270.25 111.5L257.75 122.5L255.75 113L252.25 105L254.25 98H259.25L271.25 91.5L283.25 91L293.75 82.5L301.75 83.5L306.75 80.5L314.75 82.5L313.75 85L312.75 89L295.75 111.5H270.25Z" fill="#E22034" stroke="black" stroke-opacity="0.24"/>
<path d="M385.25 147.5L382.75 141H395.75L405.25 136.5L411.25 127.5V103.5L419.75 99L432.75 103.5V107L444.75 114L453.25 122.5L455.25 132L461.25 143.5C459.75 145.5 456.65 149.5 456.25 149.5C455.85 149.5 457.083 152.5 457.75 154C457.083 154.5 455.65 155.6 455.25 156C454.85 156.4 447.083 152.833 443.25 151L422.25 149.5L410.25 145L385.25 147.5Z" fill="#E22034" stroke="black" stroke-opacity="0.24"/>
<path d="M203.25 58L196.25 65.5L205.25 82.5L215.25 87.5H230.25L243.25 82.5L260.25 74H273.75L265.75 58L245.75 48L239.25 27L233.25 23L219.25 20.5L216.75 31.5V51.5L208.25 58H203.25Z" fill="#E22034" stroke="black" stroke-opacity="0.24"/>
<path d="M313.25 85V89.5L336.75 88L354.25 80.5L376.25 79L382.75 74L366.25 65.5L352.75 50L348.25 40H332.75L323.25 56L321.25 69L313.25 85Z" fill="#27AE60" stroke="black" stroke-opacity="0.24"/>
<path d="M227.25 13.5L211.75 15.5L212.25 20.5H219.75L233.75 23L238.75 27.5L246.25 48.5L268.25 43.5L281.75 36H293.25L308.75 47.5C312.25 53.6667 319.25 66.2 319.25 67C319.25 67.8 321.917 59 323.25 54.5L333.25 40L344.25 23L339.25 3.5L331.75 5L319.25 17.5L297.25 9.5H280.25L268.25 6.5L238.75 5L227.25 13.5Z" fill="#27AE60" stroke="black" stroke-opacity="0.24"/>
<path d="M182.25 43L168.25 49L178.75 58H192.25L198.75 62L203.25 58H208.75L216.25 51.5V30.5L218.75 20H212.25V16L182.25 39.5V43Z" fill="#27AE60" stroke="black" stroke-opacity="0.24"/>
<path d="M179.25 56.5L172.75 52.5L155.25 62L153.25 65.5V70.5H172.75L179.25 78.5L168.25 88.5V100L160.25 106.5H150.75L134.75 113L162.25 133L179.25 131L203.25 129L201.75 116.5L193.75 94.5L183.75 86L188.25 78.5L201.75 77L195.75 65.5L198.75 62L190.75 56.5H179.25Z" fill="#E22034" stroke="black" stroke-opacity="0.24"/>
<path d="M270.75 112C265.917 115.833 256.15 123.8 255.75 125L279.25 129L325.75 146.5L339.25 143L340.75 133V122.5L349.75 113.5H356.75L365.25 90L363.75 79L354.75 80L336.25 88L312.25 90L296.25 112H270.75Z" fill="#27AE60" stroke="black" stroke-opacity="0.24"/>
<path d="M375.75 79H363.75L366.25 90.5L357.25 113.5H350.25L339.25 122.5L341.75 133L339.25 143L354.25 145.5L382.25 141H395.75L404.75 136.5L411.25 127V104L419.25 99L402.75 93.5L390.25 79L382.25 74.5L375.75 79Z" fill="#E22034" stroke="black" stroke-opacity="0.24"/>
<path d="M340.25 6L344.25 23L333 40L347.75 41L353.25 51L366.25 65.5L383.75 74.5L402.25 93.5L432.25 102.5L443.75 100L435.25 31L440.25 16L435.25 12L422.25 16L369.25 8.5L361.75 1L353.25 4L340.25 6Z" fill="#E22034" stroke="black" stroke-opacity="0.24"/>
<path d="M316.75 191.5L303.25 199.5L293.25 189.5L279.25 188.5L255.75 175.5V169L260.75 160L264.25 148L289.75 133.5L326.25 146L333.75 144.5L344.25 158L329.75 172L335.25 188.5L316.75 191.5Z" fill="#E22034" stroke="black" stroke-opacity="0.24"/>
<path d="M387.75 259L379.75 271L365.25 265.5L349.25 249.5V246.5L337.25 240.5V235L347.25 222.5L332.75 212.5L316.75 215L303.25 199.5L316.75 191.5L335.25 188L343.25 190.5L356.75 186L391.25 183.5V188L373.75 197L372.75 202L368.75 203.5L365.25 205.5L380.75 228.5C385.083 230.667 394.25 235 396.25 235C398.25 235 397.083 242 396.25 245.5L386.75 255.5L387.75 259Z" fill="#2DA4E7" stroke="black" stroke-opacity="0.24"/>
<path d="M338.25 143.5L334.25 145.5L345.25 158L329.75 171.5L334.25 187L343.75 190L356.75 186L390.75 183.5L397.25 179.5L398.75 175.5L387.75 168L390.75 159.5L389.25 148H385.25L382.25 140.5L354.25 145.5L338.25 143.5Z" fill="#27AE60" stroke="black" stroke-opacity="0.24"/>
<path d="M264.25 235C255.25 244.167 235.95 263.5 230.75 267.5L225.25 260L236.25 228L244.25 223.5L234.25 212.5L248.25 202L245.75 194.5L228.75 190.5L220.75 179.5L257.25 175L279.75 188L293.25 190.5L301.75 199.5L311.75 210.5L299.75 218V230.5L293.25 235H264.25Z" fill="#27AE60" stroke="black" stroke-opacity="0.24"/>
<path d="M228.75 191.5L220.75 183.5V181.5L201.75 194.5L193.25 212.5L214.25 218.5L225.75 212.5H234.75L248.75 202L245.75 194.5L228.75 191.5Z" fill="#27AE60"/>
<path d="M220.75 179.5V181.5M220.75 181.5V183.5L228.75 191.5L245.75 194.5L248.75 202L234.75 212.5H225.75L214.25 218.5L193.25 212.5L201.75 194.5L220.75 181.5Z" stroke="black" stroke-opacity="0.24"/>
<path d="M185.75 172.5L172.75 170V164L178.75 157.5V131.5L201.75 129H228.25L256.75 125.5L279.75 129L290.25 133.5L264.25 148L261.25 160.5L254.75 170L256.75 176L219.25 178L201.75 170L185.75 172.5Z" fill="#27AE60" stroke="black" stroke-opacity="0.24"/>
<path d="M58.75 142L11.25 139L0.75 194.5L8.25 196.5L44.75 198L58.75 194.5L64.75 202.5V208.5L60.25 211.5L61.25 217L71.75 230L67.75 241.5L71.75 255L69.25 261L67.75 271L76.25 279.5L113.75 303.5H128.75L152.25 315.5L170.25 311.5L193.75 308.5H207.25L198.75 299V283L193.75 271.5V259L198.75 250L170.25 235L157.75 221.5L142.25 217L137.75 210L140.25 198L146.75 181L124.75 166C120.083 161.167 110.35 151.4 108.75 151C107.15 150.6 91.75 146.5 84.25 144.5H66.25L58.75 142Z" fill="#E22034" stroke="black" stroke-opacity="0.24"/>
<path d="M20.75 96.5C17.75 108.5 11.75 133.7 11.75 138.5L58.25 142L66.75 146.5L84.75 144.5L110.25 152.5L147.25 181L154.75 174.5L172.25 169.5V164.5L178.75 156.5V133H162.25L134.75 113.5L118.75 100L113.25 86L116.25 75L102.75 69.5L88.75 65.5L66.75 69.5L52.75 73.5L16.75 96.5H20.75Z" fill="#27AE60" stroke="black" stroke-opacity="0.24"/>
<path d="M229.75 280L201.75 295.5L198.75 283.5L194.25 272.5V260.5L198.75 250.5L171.75 236L157.25 221.5C153.75 219.833 145.85 216.7 142.25 217.5C138.65 218.3 138.417 211.5 138.75 208L146.75 180L155.75 174.5L171.75 171L185.75 172.5L201.75 171L219.75 182L201.75 194.5L194.25 213L214.25 219L225.25 213H233.75L244.75 223L236.25 228.5L225.25 260.5L229.75 268V280Z" fill="#27AE60" stroke="black" stroke-opacity="0.24"/>
<path d="M208.75 307.5L201.25 298L231.25 280V268.5L243.75 258L265.25 235H295.25L299.75 230V217.5L311.75 210L317.75 215L334.25 213L347.25 222L337.25 235V240L349.75 246.5V251L365.25 266L380.25 272.5L370.25 292.5V298L363.25 307.5L365.25 311.5L363.25 316L356.75 319L354.75 326H341.75L322.25 324C320.417 322.833 316.35 320.2 314.75 319C313.15 317.8 290.75 316.5 279.75 316L234.25 302L208.75 307.5Z" fill="#E22034" stroke="black" stroke-opacity="0.24"/>
<path d="M134.25 87L117.25 75L112.75 87L119.25 101L134.25 111.5L150.75 106.5H161.25L168.25 99V87L180.25 77.5L171.25 71H153.25V65L157.75 60C162.75 58.1666 172.75 53.9 172.75 51.5C172.75 49.1 165.083 50.5 161.25 51.5L145.25 60L142.25 80L134.25 87Z" fill="#E22034" stroke="black" stroke-opacity="0.24"/>
<path d="M234.75 117.5L233.75 127.5L255.75 125L257.25 122.5L255.75 113L252.25 104.5L253.75 95.5L249.25 94.5L247.25 93L230.25 94.5L224.75 101V108L234.75 117.5Z" fill="#E22034" stroke="black" stroke-opacity="0.24"/>
</svg>
