<svg width="34" height="34" viewBox="0 0 34 34" fill="none" xmlns="http://www.w3.org/2000/svg">
<path opacity="0.4" d="M30.459 17.0143C30.459 24.4472 24.4335 30.4727 17.0007 30.4727C9.56782 30.4727 3.54232 24.4472 3.54232 17.0143C3.54232 9.58149 9.56782 3.55599 17.0007 3.55599C24.4335 3.55599 30.459 9.58149 30.459 17.0143Z" fill="#2EBA2E" stroke="#2EBA2E" stroke-width="1.41667"/>
<path d="M12.3958 15.1436C12.3958 12.6023 14.4587 10.5394 17 10.5394C19.5407 10.5394 21.6032 12.6013 21.6042 15.1418C21.591 17.6341 19.6453 19.6417 17.1715 19.7336H17.1714H17.1714H17.1713H17.1712H17.1712H17.1711H17.171H17.171H17.1709H17.1708H17.1707H17.1707H17.1706H17.1705H17.1704H17.1704H17.1703H17.1702H17.1702H17.1701H17.17H17.1699H17.1699H17.1698H17.1697H17.1696H17.1696H17.1695H17.1694H17.1694H17.1693H17.1692H17.1691H17.1691H17.169H17.1689H17.1688H17.1688H17.1687H17.1686H17.1685H17.1685H17.1684H17.1683H17.1682H17.1682H17.1681H17.168H17.1679H17.1679H17.1678H17.1677H17.1676H17.1675H17.1675H17.1674H17.1673H17.1672H17.1672H17.1671H17.167H17.1669H17.1669H17.1668H17.1667H17.1666H17.1665H17.1665H17.1664H17.1663H17.1662H17.1662H17.1661H17.166H17.1659H17.1658H17.1658H17.1657H17.1656H17.1655H17.1655H17.1654H17.1653H17.1652H17.1651H17.1651H17.165H17.1649H17.1648H17.1647H17.1647H17.1646H17.1645H17.1644H17.1643H17.1643H17.1642H17.1641H17.164H17.1639H17.1639H17.1638H17.1637H17.1636H17.1635H17.1635H17.1634H17.1633H17.1632H17.1631H17.1631H17.163H17.1629H17.1628H17.1627H17.1627H17.1626H17.1625H17.1624H17.1623H17.1623H17.1622H17.1621H17.162H17.1619H17.1619H17.1618H17.1617H17.1616H17.1615H17.1614H17.1614H17.1613H17.1612H17.1611H17.161H17.161H17.1609H17.1608H17.1607H17.1606H17.1605H17.1605H17.1604H17.1603H17.1602H17.1601H17.1601H17.16H17.1599H17.1598H17.1597H17.1596H17.1596H17.1595H17.1594H17.1593H17.1592H17.1591H17.1591H17.159H17.1589H17.1588H17.1587H17.1587H17.1586H17.1585H17.1584H17.1583H17.1582H17.1582H17.1581H17.158H17.1579H17.1578H17.1577H17.1577H17.1576H17.1575H17.1574H17.1573H17.1572H17.1572H17.1571H17.157H17.1569H17.1568H17.1567H17.1567H17.1566H17.1565H17.1564H17.1563H17.1562H17.1562H17.1561H17.156H17.1559H17.1558H17.1557H17.1555H17.1553H17.1552H17.155H17.1548H17.1547H17.1545H17.1543H17.1542H17.154H17.1538H17.1536H17.1535H17.1533H17.1531H17.153H17.1528H17.1526H17.1524H17.1523H17.1521H17.1519H17.1518H17.1516H17.1514H17.1512H17.1511H17.1509H17.1507H17.1505H17.1504H17.1502H17.15H17.1498H17.1497H17.1495H17.1493H17.1491H17.1489H17.1488H17.1486H17.1484H17.1482H17.1481H17.1479H17.1477H17.1475H17.1473H17.1472H17.147H17.1468H17.1466H17.1464H17.1462H17.1461H17.1459H17.1457H17.1455H17.1453H17.1452H17.145H17.1448H17.1446H17.1444H17.1442H17.144H17.1439H17.1437H17.1435H17.1433H17.1431H17.1429H17.1427H17.1426H17.1424H17.1422H17.142H17.1418H17.1416H17.1414H17.1412H17.1411H17.1409H17.1407H17.1405H17.1403H17.1401H17.1399H17.1397H17.1395H17.1394H17.1392H17.139H17.1388H17.1386H17.1384H17.1382H17.138H17.1378H17.1376H17.1374H17.1372H17.1371H17.1369H17.1367H17.1365H17.1363H17.1361H17.1359H17.1357H17.1355H17.1353H17.1351H17.1349H17.1347H17.1345H17.1343H17.1341H17.1339H17.1337H17.1335H17.1334H17.1332H17.133H17.1328H17.1326H17.1324H17.1322H17.132H17.1318H17.1316H17.1314H17.1312H17.131H17.1308H17.1306H17.1304H17.1302H17.13H17.1298H17.1296H17.1294H17.1292H17.129H17.1288H17.1286H17.1284H17.1282H17.128H17.1278H17.1276H17.1274H17.1272H17.127H17.1268H17.1266H17.1264H17.1262H17.126H17.1258H17.1256H17.1254H17.1252H17.125H17.1248H17.1246H17.1244H17.1242H17.124H17.1238H17.1236H17.1234H17.1231H17.1229H17.1227H17.1225H17.1223H17.1221H17.1219H17.1217H17.1215H17.1213H17.1211H17.1209H17.1207H17.1205H17.1203H17.1201H17.1199H17.1197H17.1195H17.1193H17.1191H17.1189H17.1187H17.1184H17.1182H17.118H17.1178H17.1176H17.1174H17.1172H17.117H17.1168H17.1166H17.1164H17.1162H17.116H17.1158H17.1156H17.1154H17.1152H17.1149H17.1147H17.1145H17.1143H17.1141H17.1139H17.1137H17.1135H17.1133H17.1131H17.1129H17.1127H17.1125H17.1123H17.1121H17.1118H17.1116H17.1114H17.1112H17.111H17.1108H17.1106H17.1104H17.1102H17.11H17.1098H17.1096H17.1094H17.1092H17.1089H17.1087H17.1085H17.1083H17.1081H17.1079H17.1077H17.1075H17.1073H17.1071H17.1069H17.1067H17.1065H17.1062H17.106H17.1058H17.1056H17.1054H17.1052H17.105H17.1048H17.1046H17.1044H17.1042H17.104H17.1038H17.1036H17.1033H17.1031H17.1029H17.1027H17.1025H17.1023H17.1021H17.1019H17.1017H17.1015H17.1013H17.1011H17.1009H17.1007H17.1004H17.1002H17.1H17.0998H17.0996H17.0994H17.0992H17.099H17.0988H17.0986H17.0984H17.0982H17.098H17.0978H17.0975H17.0973H17.0971H17.0969H17.0967H17.0965H17.0963H17.0961H17.0959H17.0957H17.0955H17.0953H17.0951H17.0949H17.0947H17.0945H17.0943H17.094H17.0938H17.0936H17.0934H17.0932H17.093H17.0928H17.0926H17.0924H17.0922H17.092H17.0918H17.0916H17.0914H17.0912H17.091H17.0908H17.0906H17.0904H17.0902H17.09H17.0898H17.0896H17.0893H17.0891H17.0889H17.0887H17.0885H17.0883H17.0881H17.0879H17.0877H17.0875H17.0873H17.0871H17.0869H17.0867H17.0865H17.0863H17.0861H17.0859H17.0857H17.0855H17.0853H17.0851H17.0849H17.0847H17.0845H17.0843H17.0841H17.0839H17.0837H17.0835H17.0833H17.0831H17.0829H17.0827H17.0825H17.0823H17.0821H17.0819H17.0817H17.0815H17.0813H17.0811H17.0809H17.0807H17.0805H17.0803H17.0801H17.0799H17.0797H17.0795H17.0793H17.0791H17.0789H17.0788H17.0786H17.0784H17.0782H17.078H17.0778H17.0776H17.0774H17.0772H17.077H17.0768H17.0766H17.0764H17.0762H17.076H17.0758H17.0756H17.0754H17.0753H17.0751H17.0749H17.0747H17.0745H17.0743H17.0741H17.0739H17.0737H17.0735H17.0733H17.0731H17.073H17.0728H17.0726H17.0724H17.0722H17.072H17.0718H17.0716H17.0714H17.0713H17.0711H17.0709H17.0707H17.0705H17.0703H17.0701H17.0699H17.0698H17.0696H17.0694H17.0692H17.069H17.0688H17.0686H17.0685H17.0683H17.0681H17.0679H17.0677H17.0675H17.0673H17.0672H17.067H17.0668H17.0666H17.0664H17.0663H17.0661H17.0659H17.0657H17.0655H17.0653H17.0652H17.065H17.0648H17.0646H17.0644H17.0643H17.0641H17.0639H17.0637H17.0636H17.0634H17.0632H17.063H17.0628H17.0627H17.0625H17.0623H17.0621H17.062H17.0618H17.0616H17.0614H17.0613H17.0611H17.0609H17.0607H17.0606H17.0604H17.0602H17.06H17.0599H17.0597H17.0595H17.0594H17.0592H17.059H17.0589H17.0587H17.0585H17.0583H17.0582H17.058H17.0578H17.0577H17.0575H17.0573H17.0572H17.057H17.0568H17.0567H17.0565H17.0563H17.0562H17.056H17.0558H17.0557H17.0555H17.0553H17.0551H17.055H17.0548H17.0546H17.0545H17.0543H17.0541H17.0539H17.0538H17.0536H17.0534H17.0532H17.053H17.0529H17.0527H17.0525H17.0523H17.0521H17.052H17.0518H17.0516H17.0514H17.0512H17.051H17.0508H17.0507H17.0505H17.0503H17.0501H17.0499H17.0497H17.0495H17.0493H17.0491H17.049H17.0488H17.0486H17.0484H17.0482H17.048H17.0478H17.0476H17.0474H17.0472H17.047H17.0468H17.0466H17.0464H17.0462H17.046H17.0458H17.0456H17.0454H17.0452H17.045H17.0448H17.0446H17.0444H17.0442H17.044H17.0438H17.0436H17.0434H17.0431H17.0429H17.0427H17.0425H17.0423H17.0421H17.0419H17.0417H17.0415H17.0413H17.041H17.0408H17.0406H17.0404H17.0402H17.04H17.0398H17.0395H17.0393H17.0391H17.0389H17.0387H17.0385H17.0382H17.038H17.0378H17.0376H17.0374H17.0371H17.0369H17.0367H17.0365H17.0362H17.036H17.0358H17.0356H17.0354H17.0351H17.0349H17.0347H17.0344H17.0342H17.034H17.0338H17.0335H17.0333H17.0331H17.0329H17.0326H17.0324H17.0322H17.0319H17.0317H17.0315H17.0312H17.031H17.0308H17.0305H17.0303H17.0301H17.0298H17.0296H17.0294H17.0291H17.0289H17.0287H17.0284H17.0282H17.0279H17.0277H17.0275H17.0272H17.027H17.0267H17.0265H17.0263H17.026H17.0258H17.0255H17.0253H17.0251H17.0248H17.0246H17.0243H17.0241H17.0238H17.0236H17.0233H17.0231H17.0229H17.0226H17.0224H17.0221H17.0219H17.0216H17.0214H17.0211H17.0209H17.0206H17.0204H17.0201H17.0199H17.0196H17.0194H17.0191H17.0189H17.0186H17.0184H17.0181H17.0179H17.0176H17.0174H17.0171H17.0169H17.0166H17.0164H17.0161H17.0158H17.0156H17.0153H17.0151H17.0148H17.0146H17.0143H17.0141H17.0138H17.0135H17.0133H17.013H17.0128H17.0125H17.0123H17.012H17.0117H17.0115H17.0112H17.011H17.0107H17.0104H17.0102H17.0099H17.0097H17.0094H17.0091H17.0089H17.0086H17.0083H17.0081H17.0078H17.0076H17.0073H17.007H17.0068H17.0065H17.0062H17.006H17.0057H17.0054H17.0052H17.0049H17.0047H17.0044H17.0041H17.0039H17.0036H17.0033H17.0031H17.0028H17.0025H17.0023H17.002H17.0017H17.0015H17.0012H17.0009H17.0006H17.0004H17.0001H16.9998H16.9996H16.9993H16.999H16.9988H16.9985H16.9982H16.998H16.9977H16.9974H16.9971H16.9969H16.9966H16.9963H16.9961H16.9958H16.9955H16.9953H16.995H16.9947H16.9944H16.9942H16.9939H16.9936H16.9933H16.9931H16.9928H16.9925H16.9923H16.992H16.9917H16.9914H16.9912H16.9909H16.9906H16.9903H16.9901H16.9898H16.9895H16.9892H16.989H16.9887H16.9884H16.9882H16.9879H16.9876H16.9873H16.9871H16.9868H16.9865H16.9862H16.986H16.9857H16.9854H16.9851H16.9849H16.9846H16.9843H16.984H16.9837H16.9835H16.9832H16.9829H16.9826H16.9824H16.9821H16.9818H16.9815H16.9813H16.981H16.9807H16.9804H16.9802H16.9799H16.9796H16.9793H16.9791H16.9788H16.9785H16.9782H16.9779H16.9777H16.9774H16.9771H16.9768H16.9766H16.9763H16.976H16.9757H16.9755H16.9752H16.9749H16.9746H16.9744H16.9741H16.9738H16.9735H16.9732H16.973H16.9727H16.9724H16.9721H16.9719H16.9716H16.9713H16.971H16.9708H16.9705H16.9702H16.9699H16.9697H16.9694H16.9691H16.9688H16.9685H16.9683H16.968H16.9677H16.9674H16.9672H16.9669H16.9666H16.9663H16.9661H16.9658H16.9655H16.9652H16.965H16.9647H16.9644H16.9641H16.9639H16.9636H16.9633H16.963H16.9628H16.9625H16.9622H16.9619H16.9617H16.9614H16.9611H16.9608H16.9606H16.9603H16.96H16.9597H16.9595H16.9592H16.9589H16.9586H16.9584H16.9581H16.9578H16.9576H16.9573H16.957H16.9567H16.9565H16.9562H16.9559H16.9556H16.9554H16.9551H16.9548H16.9546H16.9543H16.954H16.9537H16.9535H16.9532H16.9529H16.9527H16.9524H16.9521H16.9518H16.9516H16.9513H16.951H16.9508H16.9505H16.9502H16.95H16.9497H16.9494H16.9492H16.9489H16.9486H16.9484H16.9481H16.9478H16.9476H16.9473H16.947H16.9467H16.9465H16.9462H16.946H16.9457H16.9454H16.9452H16.9449H16.9446H16.9444H16.9441H16.9438H16.9436H16.9433H16.943H16.9428H16.9425H16.9422H16.942H16.9417H16.9415H16.9412H16.9409H16.9407H16.9404H16.9401H16.9399H16.9396H16.9396C14.3321 19.6545 12.3958 17.6266 12.3958 15.1436Z" fill="#2EBA2E" stroke="#2EBA2E" stroke-width="1.41667"/>
<path d="M23.6029 24.6429L23.605 24.6442C24.6987 25.3733 25.4319 26.2639 25.7899 27.2039C23.4334 29.2356 20.3638 30.4723 16.9995 30.4723C13.6355 30.4723 10.566 29.2357 8.20965 27.2043C8.56927 26.2662 9.31048 25.3746 10.3955 24.6433C12.1892 23.448 14.5835 22.8294 17.0102 22.8294C19.4377 22.8294 21.8244 23.4484 23.6029 24.6429Z" fill="#27AE60" stroke="#2EBA2E" stroke-width="1.41667"/>
</svg>
